<svg xmlns="http://www.w3.org/2000/svg" viewBox="0 0 64 36" xml:space="preserve"><rect width="60" height="34" fill="none" stroke="#fff" rx="4" x="2" y="1"/><path d="M6 3h2m2 0h2m2 0h2M6 3h2m2 0h2m2 0h2m2 0h2m2 0h2m2 0h2m2 0h2m2 0h2m2 0h2m2 0h2m2 0h2m2 0h2m2 0h2m2 0h1" stroke="#fff" stroke-width="2" stroke-miterlimit="10" stroke-linecap="round"/><path d="M5 6h3v3H5zm5 0h2v3h-2zm4 0h2v3h-2zm4 0h2v3h-2zm4 0h2v3h-2zm4 0h2v3h-2zm4 0h2v3h-2zm4 0h2v3h-2zm4 0h2v3h-2zm4 0h2v3h-2zm4 0h2v3h-2zm4 0h2v3h-2zm4 0h6v3h-6zM4 12h4v3H4zm6 0h2v3h-2zm4 0h2v3h-2zm4 0h2v3h-2zm4 0h2v3h-2zm4 0h2v3h-2zm4 0h2v3h-2zm4 0h2v3h-2zm4 0h2v3h-2zm4 0h2v3h-2zm4 0h2v3h-2zm4 0h2v3h-2zm4 0h2v3h-2zm4 0h2v3h-2zM4 18h4v3H4zm6 0h2v3h-2zm4 0h2v3h-2zm4 0h2v3h-2zm4 0h2v3h-2zm4 0h2v3h-2zm4 0h2v3h-2zm4 0h2v3h-2zm4 0h2v3h-2zm4 0h2v3h-2zm4 0h2v3h-2zm4 0h2v3h-2zm4 0h2v3h-2zm3 0h3v3h-3zM4 24h4v3H4zm6 0h2v3h-2zm4 0h2v3h-2zm4 0h2v3h-2zm4 0h2v3h-2zm4 0h2v3h-2zm4 0h2v3h-2zm4 0h2v3h-2zm4 0h2v3h-2zm4 0h2v3h-2zm4 0h2v3h-2zm4 0h2v3h-2zm4 0h2v3h-2zm4 0h2v3h-2zM6 30h6v3H6zm8 0h6v3h-6zm8 0h22v3H22zm24 0h2v3h-2zm4 0h2v3h-2zm6-1h.9v.9H56zm-2 2h.9v1.5H54zm2 0h.9v1.5H56zm2 0h.9v1.5H58z" stroke="#fff" fill="#fff"/></svg>